<?xml version="1.0" encoding="UTF-8" standalone="no"?><!-- Generator: Gravit.io --><svg xmlns="http://www.w3.org/2000/svg" xmlns:xlink="http://www.w3.org/1999/xlink" style="isolation:isolate" viewBox="599 279.488 418.5 133.762" width="418.5pt" height="133.762pt"><defs><clipPath id="_clipPath_8OJ7QmFX331FvJok59Y5CL6gCa42qbqd"><rect x="599" y="279.488" width="418.5" height="133.762"/></clipPath></defs><g clip-path="url(#_clipPath_8OJ7QmFX331FvJok59Y5CL6gCa42qbqd)"><circle vector-effect="non-scaling-stroke" cx="642.5" cy="369.75" r="43.5" fill="rgb(74,134,232)"/><circle vector-effect="non-scaling-stroke" cx="974" cy="369.75" r="43.5" fill="rgb(74,134,232)"/><line x1="643.616" y1="369.272" x2="975.808" y2="370.228" vector-effect="non-scaling-stroke" stroke-width="1" stroke="rgb(0,0,0)" stroke-linejoin="miter" stroke-linecap="square" stroke-miterlimit="3"/><path d=" M 643.696 369.165 L 768.772 315.618 L 845.818 282.633" fill="none" vector-effect="non-scaling-stroke" stroke-width="1" stroke="rgb(0,0,0)" stroke-linejoin="miter" stroke-linecap="square" stroke-miterlimit="3"/><path d=" M 845.97 285.287 C 844.701 285.83 843.23 285.241 842.687 283.973 C 842.144 282.704 842.733 281.234 844.002 280.691 C 845.27 280.148 846.741 280.736 847.284 282.005 C 847.827 283.273 847.238 284.744 845.97 285.287 Z " fill="rgb(0,0,0)" stroke="none"/><path d=" M 716.745 338.95 Q 723.466 347.222 724.801 352.762 Q 726.2 358.565 723.65 369.45" fill="none" vector-effect="non-scaling-stroke" stroke-width="1" stroke="rgb(0,0,0)" stroke-linejoin="miter" stroke-linecap="square" stroke-miterlimit="3"/><g><clipPath id="_clipPath_BtZ0WUnjGnybepv3ANa34VNjgxCK969V"><path d=" M 703.817 349.582 L 712.817 349.582 L 712.817 364.48 L 703.817 364.48 L 703.817 349.582 Z " fill="rgb(255,255,255)"/></clipPath><g clip-path="url(#_clipPath_BtZ0WUnjGnybepv3ANa34VNjgxCK969V)"><g><g><path d=" M 712.247 354.305 C 712.247 352.977 711.888 350.212 709.857 350.212 C 707.091 350.212 704.028 355.837 704.028 360.399 C 704.028 362.274 704.607 364.477 706.419 364.477 C 709.216 364.477 712.247 358.758 712.247 354.305 Z  M 706.138 357.024 C 706.466 355.758 706.872 354.165 707.669 352.743 C 708.2 351.774 708.935 350.649 709.841 350.649 C 710.81 350.649 710.935 351.93 710.935 353.055 C 710.935 354.04 710.778 355.055 710.294 357.024 L 706.138 357.024 Z  M 710.122 357.665 C 709.903 358.587 709.482 360.274 708.716 361.712 C 708.028 363.071 707.263 364.04 706.419 364.04 C 705.747 364.04 705.341 363.462 705.341 361.602 C 705.341 360.774 705.45 359.618 705.966 357.665 L 710.122 357.665 Z " fill-rule="evenodd" fill="rgb(0,0,0)"/></g></g></g></g><g><clipPath id="_clipPath_yfAlmRipG6hXji13j0ddMvE2mBG1Jw2G"><path d=" M 756.05 301.909 L 766.05 301.909 L 766.05 311.808 L 756.05 311.808 L 756.05 301.909 Z " fill="rgb(255,255,255)"/></clipPath><g clip-path="url(#_clipPath_yfAlmRipG6hXji13j0ddMvE2mBG1Jw2G)"><g><g><path d=" M 758.168 310.414 C 758.105 310.711 757.996 311.164 757.996 311.273 C 757.996 311.633 758.277 311.804 758.574 311.804 C 758.808 311.804 759.168 311.648 759.308 311.242 C 759.34 311.164 760.027 308.461 760.105 308.101 C 760.261 307.445 760.621 306.054 760.746 305.508 C 760.824 305.258 761.371 304.32 761.855 303.883 C 762.011 303.742 762.59 303.226 763.449 303.226 C 763.965 303.226 764.261 303.461 764.293 303.461 C 763.683 303.554 763.246 304.039 763.246 304.554 C 763.246 304.867 763.465 305.258 764.011 305.258 C 764.543 305.258 765.105 304.789 765.105 304.07 C 765.105 303.383 764.465 302.773 763.449 302.773 C 762.152 302.773 761.277 303.758 760.902 304.32 C 760.746 303.414 760.027 302.773 759.09 302.773 C 758.168 302.773 757.793 303.554 757.605 303.914 C 757.261 304.586 756.996 305.789 756.996 305.851 C 756.996 306.054 757.199 306.054 757.23 306.054 C 757.433 306.054 757.449 306.023 757.574 305.586 C 757.918 304.179 758.308 303.226 759.027 303.226 C 759.371 303.226 759.652 303.383 759.652 304.133 C 759.652 304.554 759.59 304.773 759.324 305.804 L 758.168 310.414 Z " fill="rgb(0,0,0)"/></g></g></g></g></g></svg>