<?xml version="1.0" encoding="UTF-8" standalone="no"?><!-- Generator: Gravit.io --><svg xmlns="http://www.w3.org/2000/svg" xmlns:xlink="http://www.w3.org/1999/xlink" style="isolation:isolate" viewBox="379.5 311.537 734 140.216" width="734pt" height="140.216pt"><defs><clipPath id="_clipPath_XrILEszuALHMUbDs5KgmEKT9hEKm6iGv"><rect x="379.5" y="311.537" width="734" height="140.216"/></clipPath></defs><g clip-path="url(#_clipPath_XrILEszuALHMUbDs5KgmEKT9hEKm6iGv)"><ellipse vector-effect="non-scaling-stroke" cx="743.8419693392068" cy="352.69032362153706" rx="144.61457108145896" ry="41.15361464286201" fill="rgb(255,153,0)"/><rect x="380" y="353" width="733" height="98.252" transform="matrix(1,0,0,1,0,0)" fill="rgb(74,134,232)" vector-effect="non-scaling-stroke" stroke-width="1" stroke="rgb(0,0,0)" stroke-linejoin="miter" stroke-linecap="square" stroke-miterlimit="2"/><g><clipPath id="_clipPath_Iip4ckfG09Ws9sH4qSepgqU89fbVtBh3"><path d=" M 815.355 336.981 L 825.355 336.981 L 825.355 346.879 L 815.355 346.879 L 815.355 336.981 Z " fill="rgb(255,255,255)"/></clipPath><g clip-path="url(#_clipPath_Iip4ckfG09Ws9sH4qSepgqU89fbVtBh3)"><g><g><path d=" M 817.473 345.485 C 817.41 345.782 817.301 346.235 817.301 346.345 C 817.301 346.704 817.582 346.876 817.879 346.876 C 818.113 346.876 818.473 346.72 818.613 346.314 C 818.644 346.235 819.332 343.532 819.41 343.173 C 819.566 342.517 819.926 341.126 820.051 340.579 C 820.129 340.329 820.676 339.392 821.16 338.954 C 821.316 338.814 821.894 338.298 822.754 338.298 C 823.269 338.298 823.566 338.532 823.598 338.532 C 822.988 338.626 822.551 339.11 822.551 339.626 C 822.551 339.939 822.769 340.329 823.316 340.329 C 823.848 340.329 824.41 339.86 824.41 339.142 C 824.41 338.454 823.769 337.845 822.754 337.845 C 821.457 337.845 820.582 338.829 820.207 339.392 C 820.051 338.485 819.332 337.845 818.394 337.845 C 817.473 337.845 817.098 338.626 816.91 338.985 C 816.566 339.657 816.301 340.86 816.301 340.923 C 816.301 341.126 816.504 341.126 816.535 341.126 C 816.738 341.126 816.754 341.095 816.879 340.657 C 817.223 339.251 817.613 338.298 818.332 338.298 C 818.676 338.298 818.957 338.454 818.957 339.204 C 818.957 339.626 818.894 339.845 818.629 340.876 L 817.473 345.485 Z " fill="rgb(0,0,0)"/></g></g></g></g><line x1="745.601" y1="352.397" x2="888.238" y2="352.397" vector-effect="non-scaling-stroke" stroke-width="1.5" stroke="rgb(0,0,0)" stroke-linejoin="miter" stroke-linecap="square" stroke-miterlimit="3"/><path d=" M 746.351 346.273 L 746.351 358.52" fill="none" stroke="rgb(0,0,0)" stroke-width="1.5"/><path d=" M 875.99 358.52 L 888.238 352.397 L 875.99 346.273 Z " fill="rgb(0,0,0)" stroke="none"/><text transform="matrix(1,0,0,1,405.171,426.548)" style="font-family:'Open Sans';font-weight:400;font-size:20px;font-style:normal;fill:#000000;stroke:none;">Water</text><text transform="matrix(1,0,0,1,680.791,339.601)" style="font-family:'Open Sans';font-weight:400;font-size:20px;font-style:normal;fill:#000000;stroke:none;">Oil</text></g></svg>